<?xml version="1.0" encoding="UTF-8" standalone="no"?>
<svg xmlns:rdf="http://www.w3.org/1999/02/22-rdf-syntax-ns#" xmlns="http://www.w3.org/2000/svg" height="502px" width="420px" xmlns:cc="http://creativecommons.org/ns#" xmlns:xlink="http://www.w3.org/1999/xlink" xmlns:dc="http://purl.org/dc/elements/1.1/">
 <title>Ajaja ajaja (Roseate Spoonbill)</title>
 <desc xmlns:ian_image_library="http://ian.umces.edu/imagelibrary/">
  <ian_image_library:title>Ajaja ajaja (Roseate Spoonbill)</ian_image_library:title>
  <ian_image_library:descr>Illustration of Ajaja ajaja (Roseate Spoonbill)</ian_image_library:descr>
  <ian_image_library:scene>
   <ian_image_library:contains>symbol vector illustration bird Roseate Spoonbill Aves Pelecaniformes Threskiornithidae Plateinae Platalea Ajaja ajaja</ian_image_library:contains>
   <ian_image_library:when>2009-11-24</ian_image_library:when>
  </ian_image_library:scene>
 </desc>
 <metadata id="metadata-iil-4dbbb480a5221a74b511e463267041bc">
  <rdf:RDF>
   <cc:Work rdf:about="">
    <dc:format>image/svg+xml</dc:format>
    <dc:type rdf:resource="http://purl.org/dc/dcmitype/StillImage"/>
    <cc:license rdf:resource="http://creativecommons.org/licenses/by-sa/3.0/"/>
    <dc:title>Ajaja ajaja (Roseate Spoonbill)</dc:title>
    <dc:date>2009-11-24</dc:date>
    <dc:creator>
     <cc:Agent>
      <dc:title>Tracey Saxby</dc:title>
     </cc:Agent>
    </dc:creator>
    <dc:rights>
     <cc:Agent>
      <dc:title>Tracey Saxby, Integration and Application Network</dc:title>
     </cc:Agent>
    </dc:rights>
    <dc:publisher>
     <cc:Agent>
      <dc:title>Integration and Application Network</dc:title>
     </cc:Agent>
    </dc:publisher>
    <dc:identifier>http://ian.umces.edu/imagelibrary/displayimage-6372.html</dc:identifier>
    <dc:source>http://ian.umces.edu/imagelibrary/displayimage-6372.html</dc:source>
    <dc:language>en-US</dc:language>
    <dc:subject>
     <rdf:Bag>
      <rdf:li>symbol vector illustration bird Roseate Spoonbill Aves Pelecaniformes Threskiornithidae Plateinae Platalea Ajaja ajaja</rdf:li>
     </rdf:Bag>
    </dc:subject>
    <dc:coverage/>
    <dc:description>Illustration of Ajaja ajaja (Roseate Spoonbill)</dc:description>
    <dc:contributor>
     <cc:Agent>
      <dc:title/>
     </cc:Agent>
    </dc:contributor>
   </cc:Work>
   <cc:License rdf:about="http://creativecommons.org/licenses/by-sa/3.0/">
    <cc:permits rdf:resource="http://creativecommons.org/ns#Reproduction"/>
    <cc:permits rdf:resource="http://creativecommons.org/ns#Distribution"/>
    <cc:requires rdf:resource="http://creativecommons.org/ns#Notice"/>
    <cc:requires rdf:resource="http://creativecommons.org/ns#Attribution"/>
    <cc:permits rdf:resource="http://creativecommons.org/ns#DerivativeWorks"/>
    <cc:requires rdf:resource="http://creativecommons.org/ns#ShareAlike"/>
   </cc:License>
  </rdf:RDF>
 </metadata>
 <defs></defs>
 <linearGradient id="ian_symbols_95bb3f1fd15ab764656c62f2d02c10c2" y2="401.68" gradientUnits="userSpaceOnUse" x2="277.32" y1="401.68" x1="167.14">
  <stop stop-color="#A48C70" offset="0"/>
  <stop stop-color="#B99D76" offset=".4788"/>
  <stop stop-color="#887557" offset="1"/>
 </linearGradient>
 <path stroke="#070A08" stroke-width=".01" d="m170.35 485.23c1.913-2.995 4.695-6.027 7.245-8.555 2.768-2.733 4.735-6.071 7.395-8.958 2.802-3.049 4.003-5.495 4.851-9.331.78-3.538 2.164-7.056 4.871-9.338 2.835-2.375 6.2-2.853 8.934-5.278 2.924-2.581 3.609-5.668 4.613-9.08.95-3.219 4.233-5.484 4.247-8.969.021-1.407-.983-3.537-1.208-5.135-.244-1.784-.719-4.077-.95-5.893-.97-8.103-2.062-15.518-4.749-23.143-1.336-3.826-1.662-8.575-2.605-12.662-.957-4.196.42-7.272 1.988-11.062 1.513-3.646 1.35-7.663 3.67-11.2 1.94-2.958 5.95-3.301 9.07-4.61 3.141-1.315 6.356-3.039 9.097-5.125 1.669-1.262 3.195-2.588 5.163-3.681 1.567-.868 3.88-2.13 5.088-3.395 1.567-1.648 1.825-3.148 3.847-4.529 1.479-1 2.652-2.086 4.057-3.392 2.585-2.392 4.423-4.946 6.458-7.771.978-1.343 1.879-2.968 3.019-4.223 1.588-1.733 2.925-2.473 3.949-4.593 1.736-3.511 2.103-6.435 3.032-10.132 1.14-4.521 5.271.594 7.91 1.995 2.687 1.414 9.327.604 7.74 4.701-1.16 3.012-3.914 5.42-6.303 7.914-1.18 1.245-2.185 2.418-3.141 3.697-.78 1.038-3.087 2.896-3.087 4.314 0 1.896 2.938 2.49 2.063 4.783-.468 1.18-3.195 2.534-4.118 3.646-2.558 3.066-4.402 5.719-6.438 8.958-1.825 2.896-4.314 5.516-7.15 7.517-2.836 1.994-5.169 4.151-7.577 6.57-2.273 2.283-6.737 3.762-9.512 5.261-3.806 2.076-4.26 4.24-4.722 8.436-.441 4-.407 8.501-.407 12.761 0 4.501 1.105 7.822 1.608 12.109.692 5.963 3.175 10.729 5.237 16.35 2.116 5.786 6.058 9.168 12.211 9.854 1.858.207 2.822-.034 4.246 1.048.984.729 1.765 2.32 2.877 2.897 2.979 1.543 5.549-3.169 8.981-1.642 1.316.583 1.567 2.489 2.327 3.507.665.902 1.927 1.418 2.517 2.734.57 1.265 1.323 2.635.937 4.09-.414 1.54-2.374 1.703-2.618 3.175-3.094.387-.149 4.746-1.859 6.038-1.356 1.038-6.262-.315-8.019-.679-3.223-.685-5.902-.277-8.968.011-3.087.278-5.197.387-7.924 2.103-2.021 1.272-4.118 3.328-5.651 4.854-1.805 1.814-3.833 3.093-5.773 4.755-1.934 1.652-3.223 3.277-5.414 4.475-1.777.977-4.24 2.275-5.183 4.223 1.533.794 4.043.472 4.565 2.734.455 1.95-1.94 3.422-3.195 4.619-2.246 2.151-5.95 5.021-6.798 7.935-2.049.613-4.097 4.077-5.563 5.457-.76.733-1.506 1.924-2.348 2.537-1.35 1.011-2.74 1.065-4.131 1.995-1.893 1.271-3.365 3.202-4.579 4.979-.583.868-.943 1.651-1.845 2.354-1.635 1.303-1.126.842-3.012.662-2.795-.271-4.762.854-7.381 1.064-2.422.197-4.694-.472-6.716-1.706-1.947-1.184-3.514-2.038-5.502-2.914-3.121-1.353-2.53-3.005-2.53-6.435l3.13-3.69z" fill="url(#ian_symbols_95bb3f1fd15ab764656c62f2d02c10c2)"/>
 <linearGradient id="ian_symbols_59a34d0b8bfc6cb4459e38b4a92b3c9a" y2="397.94" gradientUnits="userSpaceOnUse" x2="185.23" y1="273.56" x1="178.72">
  <stop stop-color="#381610" offset="0"/>
  <stop stop-color="#912D1E" offset=".2424"/>
  <stop stop-color="#C75C35" offset=".4424"/>
  <stop stop-color="#B75A34" offset=".6303"/>
  <stop stop-color="#794321" offset=".7636"/>
  <stop stop-color="#5A361B" offset=".9758"/>
 </linearGradient>
 <path stroke="#070A08" stroke-width=".01" d="m155.21 274.79c-.611.461-.794 1.506-1.255 2.191-.441.668-1.079 1.211-1.649 1.814-.814.865-.671 1.364-1.085 2.364-.306.706-1.031 1.326-1.622 1.869.963 1.044-1.357 1.832-1.879 2.506.557 1.625 1.642 3.908.984 5.668-.353.919-1.038 1.228-.8 2.191.176.723 1.051 1.391 1.424 2.042 1.16 2.045-.237 3.826.224 6.044.217 1.048.963 1.255 1.506 1.94.4.522.841 1.913 1.011 1.814 0 0 34.218 41.752 37.665 45.523 3.466 3.772 6.282 5.647 10.366 6.91 4.091 1.248 17.265-1.887 20.718-.315 3.46 1.563 5.651 3.449 7.225 6.281 1.567 2.826 7.781 12.913 8.208 15.484.55 3.437-2.157 8.463-3.419 8.778-1.248.309-7.381-20.609-12.923-22.332-3.724-1.153-18.642 2.004-18.642 2.004s-3.365 6.109-5.251 5.479c-1.879-.624-5.651-2.205-5.651-2.205s-.631 8.792 0 11.309c.631 2.518 3.467 11.927 3.467 11.927s.929 1.255.305 2.825c-.631 1.57-5.645 0-7.218-1.886-1.567-1.886-1.567-2.507-2.198-7.533-.638-5.018-2.205-19.148-2.205-19.148s-.624-5.966-3.446-10.358c-2.822-4.396-14.755-19.148-21.98-27.621-7.218-8.483-16.634-17.272-20.718-22.289-4.077-5.017-7.842-11.306-8.473-13.815-.625-2.517.312-4.393 1.567-6.587 1.255-2.201 6.601-10.685 6.601-10.685l19.14-2.15z" fill="url(#ian_symbols_59a34d0b8bfc6cb4459e38b4a92b3c9a)"/>
 <path stroke="#070A08" stroke-width=".01" d="m192.87 402.24c-.238.288-3.223-1.975-3.765-3.142-.529-1.173-.828-3.951-.618-4.708.197-.76 2.415-1.103 3.134.937.299.886-1.112 1.968-.326 3.656.74 1.52 1.84 2.96 1.59 3.25z" fill="#381610"/>
 <linearGradient id="ian_symbols_7a15b81f7abe4b646d69d39f42e8d5ac" y2="379.71" gradientUnits="userSpaceOnUse" x2="233.23" y1="379.71" x1="202.61">
  <stop stop-color="#B75A34" offset="0"/>
  <stop stop-color="#5A361B" offset=".9758"/>
 </linearGradient>
 <path stroke="#070A08" stroke-width=".01" d="m202.61 365.19s16.946 2.201 19.456 4.718c2.51 2.511 10.359 13.175 10.99 15.38.638 2.191-.631 7.839-1.567 8.785-.936.939-4.09-2.517-4.708-5.647-.631-3.138-6.601-12.551-9.111-13.182-2.517-.634-11.607-.939-11.607-.939l-3.45-9.12z" fill="url(#ian_symbols_7a15b81f7abe4b646d69d39f42e8d5ac)"/>
 <path stroke="#070A08" stroke-width=".01" d="m228.73 399.11c.163.298 2.184-1.968 2.544-3.131.359-1.184.563-3.962.427-4.712-.136-.756-1.635-1.099-2.124.939-.21.886.76 1.968.217 3.646-.49 1.52-1.23 2.97-1.07 3.25z" fill="#381610"/>
 <linearGradient id="ian_symbols_77aadb0414e22bb445821e4e3935c760" y2="410.26" gradientUnits="userSpaceOnUse" x2="242.13" y1="410.26" x1="217.04">
  <stop stop-color="#7C4324" offset=".0727"/>
  <stop stop-color="#7C4324" offset=".5212"/>
  <stop stop-color="#5A361B" offset=".9758"/>
 </linearGradient>
 <path stroke="#070A08" stroke-width=".01" d="m217.04 401.52c.767-.021 1.601-.021 2.32-.21.78-.197.861-.876 1.391-1.316.651-.543 1.37-.271 2.164-.359.739-.092 1.554-.451 2.293-.642 2.598-.631 4.851-3.836 7.489-2.238 1.391.848 1.642 2.429 2.185 3.88.488 1.282 1.513 2.039 2.53 2.924 2.117 1.859 3.135 4.62 3.697 7.175.665 3.012 1.296 6.152.882 9.402-.088.811-.081 1.543-.251 2.3-.244 1.082-.021 1.554-1.255 1.733-1.37.196-2.788-.228-3.826-1.255-1.024-1.012-1.092-2.718-1.397-4.044-.346-1.533-.631-2.903-.631-4.593 0-.811-.149-1.577-.217-2.282-.108-.865-.021-1.869-.251-2.69-.184-.604-.76-1.071-1.16-1.566-.435-.543-.72-1.157-1.262-1.673-.549-.539-.448-.44-1.079-.359-.583.064-1.051.278-1.526.566-.624.38-1.764 1.526-2.462 1.52l-9.002-2.51-.62-3.76z" fill="url(#ian_symbols_77aadb0414e22bb445821e4e3935c760)"/>
 <linearGradient id="ian_symbols_4d9f208a131db464155c6de3bf252074" y2="457.36" gradientUnits="userSpaceOnUse" x2="240.21" y1="401.68" x1="234.36">
  <stop stop-color="#7C4324" offset=".0727"/>
  <stop stop-color="#7C4324" offset=".5212"/>
  <stop stop-color="#5A361B" offset=".9152"/>
  <stop stop-color="#381610" offset="1"/>
 </linearGradient>
 <path stroke="#070A08" stroke-width=".01" d="m218.1 403.39c.542.413 1.642.261 2.313.406.685.153 1.432.451 2.13.594 1.465.315 2.917.913 4.328 1.319 1.35.387 2.687.828 3.989 1.486 1.336.688 2.551 1.662 3.968 2.059 1.479.407 3.054.695 4.62 1.048.787.181 1.608.278 2.348.577.685.261 1.363.641 2.035.885 1.336.496 2.096.947 3.188 2.039.93.919 1.92 2.245 2.408 3.446.672 1.662 1.533 3.168 2.422 4.756.461.848 1.011 1.706 1.35 2.57.359.869.78 1.608 1.106 2.463 0 0 .413 22.19-1.052 23.859-1.473 1.679-4.6 3.979-5.447 4.603-.835.631-2.511 1.469-4.18 1.469-1.682 0-2.517.21-2.517-.421 0-.624 3.142-.624 3.562-1.886.421-1.255-1.255-4.396-.42-5.641.841-1.266 3.141-.841 3.351-1.886.204-1.055.835-1.473.421-4.82-.421-3.348-4.192-18.839-4.192-18.839l-4.383-3.972h-7.543l-14.233-12.137.41-3.99z" fill="url(#ian_symbols_4d9f208a131db464155c6de3bf252074)"/>
 <linearGradient id="ian_symbols_ea2ff10b94971f443106a6a7bc813a44" y2="445.46" gradientUnits="userSpaceOnUse" x2="210" y1="263.62" x1="200.47">
  <stop stop-color="#CF633A" offset=".0606"/>
  <stop stop-color="#BE734B" offset=".3455"/>
  <stop stop-color="#BB5736" offset=".6545"/>
  <stop stop-color="#794321" offset=".8242"/>
  <stop stop-color="#5A361B" offset=".9758"/>
 </linearGradient>
 <path stroke="#070A08" stroke-width=".01" d="m186.07 267.98s-3.562 20.304-4.186 24.697c-.617 4.396-5.027 14.864-5.644 17.164-.631 2.3-1.465 8.789-.841 10.261.631 1.462 4.6 9.827 7.327 16.946 2.713 7.12 7.109 20.088 10.467 29.09 3.338 8.999 5.645 21.136 7.32 25.321 1.668 4.186-.21 8.799 0 13.608.203 4.81.834 16.322 2.517 20.094 1.669 3.762 4.81 12.127 4.81 12.127l4.599-5.648s-1.668-1.886-2.931-5.864c-1.255-3.969-1.879-12.126-1.879-12.126s3.772 2.724 5.651 3.348c1.873.62 3.969-.624 5.013 0 1.052.62 8.792 6.062 10.468 8.582 1.683 2.506 3.555 10.25 3.982 12.56.414 2.29-.211 4.387.203 5.648.421 1.255 3.142-.425 4.192-2.518 1.045-2.096.218-9.412.218-9.412s.196-4.186-.855-6.913c-1.044-2.717-2.503-4.603-6.275-8.164-3.765-3.556-10.25-8.158-10.881-9.206-.624-1.045-.204-3.772-.834-5.44-.631-1.68-.217-2.507-1.472-4.811-1.255-2.31-6.268-14.446-9.199-23.441-2.938-8.996-9.423-26.376-10.468-29.507-1.052-3.141-1.886-5.865-2.307-8.799-.414-2.924 0-11.295-.631-15.061-.61-3.771-2.089-8.158-2.089-10.25 0-2.103-.197-2.31.217-5.451.414-3.131 6.696-37.665 6.696-37.665l-6.282-3.138-6.91 3.96z" fill="url(#ian_symbols_ea2ff10b94971f443106a6a7bc813a44)"/>
 <linearGradient id="ian_symbols_3461d13c8a854804c1a9993de8714d93" y2="184.86" gradientUnits="userSpaceOnUse" x2="243.73" y1="184.86" x1=".0049">
  <stop stop-color="#FAD8BC" offset=".0606"/>
  <stop stop-color="#F7CFBE" offset=".9758"/>
 </linearGradient>
 <path stroke="#070A08" stroke-width=".01" d="m243.73 112.49s-29.816-.95-33.906-.95c-4.077 0-15.067.315-20.718.95-5.638.631-9.41 3.446-10.977 4.708-1.574 1.255-8.792-.631-15.705 1.57-6.899 2.195-14.437 8.789-14.437 8.789-7.679 2.147-16.207 3.423-22.543 8.544-.882.716-1.621 1.591-2.171 2.51-.536.885-1.906 2.32-2.028 3.331-.176.027-.346.071-.509.116-.271 1.201-1.744 1.743-2.584 2.445-.896.76-1.506 1.543-2.273 2.429-.746.875-1.445 2.147-1.811 3.212-.414 1.208-.027 2.903-.93 3.778 0 0-29.503 26.061-27.936 26.695 1.567.621 4.382.306 4.382.306s-2.497.939-7.523 2.191c-14.131 4.406-34.53 21.668-41.131 26.376-6.587 4.701-32.333 21.027-32.014 23.543.319 2.517 2.51 3.762 4.403 3.446 1.879-.305 8.161-3.762 8.161-3.762s-20.102 16.63-20.719 19.77c-.638 3.141-1.899 2.195 1.567 4.087 3.446 1.879 11.295 1.57 11.295 1.57l230.1-145.67z" fill="url(#ian_symbols_3461d13c8a854804c1a9993de8714d93)"/>
 <linearGradient id="ian_symbols_daad2e0f694b8004697711c4395d6c8a" y2="259.09" gradientUnits="userSpaceOnUse" x2="190.99" y1="259.09" x1="131.98">
  <stop stop-color="#E71E25" offset=".0606"/>
  <stop stop-color="#441A0E" offset=".9758"/>
 </linearGradient>
 <path stroke="#070A08" stroke-width=".01" d="m131.98 280.75s17.265-3.453 28.248-6.902c10.99-3.457 26.993-10.044 26.993-10.044l3.772-26.375-28.248 8.167-26.682 24.795-4.08 10.35z" fill="url(#ian_symbols_daad2e0f694b8004697711c4395d6c8a)"/>
 <linearGradient id="ian_symbols_f1e7bbd8451f2a14c98f7bbb576d8912" y2="58.882" gradientUnits="userSpaceOnUse" x2="323.42" y1="58.882" x1="302.75">
  <stop stop-color="#BD9A70" offset="0"/>
  <stop stop-color="#514C36" offset=".9758"/>
 </linearGradient>
 <path stroke="#070A08" stroke-width=".01" d="m321.89 61.79c-.502.081-.813.322-1.404.322-.617-.007-1.174-.017-1.723-.153-.591-.153-.95-.322-1.567-.322-.61.007-1.296.078-1.893.007-.937-.108-1.913-.614-2.815-.99-1.018-.428-2.056-.994-2.944-1.727-.732-.614-1.241-1.36-2.083-1.805-.549-.278-1.051-.604-1.58-.946-.394-.251-.753-.723-1.215-.848.027-.261-.061-.522-.346-.597l-1.567-1.577c.265.18.462.777.584 1.099.189.444.373.733.705 1.092.651.75 1.12 1.428 1.893 2.004.706.533 1.378 1.181 2.035 1.777.747.658 1.595 1.092 2.442 1.598.753.458 1.445 1.12 2.185 1.578.76.488 1.628.966 2.436 1.347.814.359 1.724.658 2.599.848.447.088.929.115 1.444.115.136 0 .265-.007.387-.027-.44-.641-.691-1.082-.549-1.218.481-.479 2.835.156 4.239-.794.129-.081.218-.298.271-.597-.44-.180-1.12-.251-1.52-.186z" fill="url(#ian_symbols_f1e7bbd8451f2a14c98f7bbb576d8912)"/>
 <linearGradient id="ian_symbols_c20a7b47599c36041de7e42b2ed32b60" y2="38.07" gradientUnits="userSpaceOnUse" x2="297.9" y1="224.15" x1="183.1">
  <stop stop-color="#E26846" offset=".0606"/>
  <stop stop-color="#E9D6B5" offset=".5091"/>
  <stop stop-color="#F8DFC4" offset=".9758"/>
 </linearGradient>
 <path stroke="#070A08" stroke-width=".01" d="m337.5 116.61c-.441-7.218-1.5-18.004-3.521-23.272-2.809-7.364-8.154-18.049-10.04-21.974-1.31-2.724-3.453-5.295-4.478-6.777-.122.02-.251.027-.387.027-.516 0-.997-.027-1.444-.115-.875-.19-1.784-.488-2.599-.848-.808-.38-1.676-.858-2.436-1.347-.739-.458-1.432-1.12-2.185-1.578-.848-.505-1.695-.939-2.442-1.598-.657-.597-1.329-1.245-2.035-1.777-.772-.577-1.241-1.255-1.893-2.004-.332-.359-.516-.648-.705-1.092-.122-.322-.319-.919-.584-1.099l1.567 1.577c.285.075.373.336.346.597.462.125.821.597 1.215.848.529.342 1.031.668 1.58.946.842.444 1.351 1.19 2.083 1.805.889.732 1.927 1.299 2.944 1.727.902.376 1.879.882 2.815.99.597.071 1.282 0 1.893-.007.617 0 .977.169 1.567.322.549.136 1.105.146 1.723.153.591 0 .902-.241 1.404-.322.4-.064 1.086.006 1.533.187.563-3.175-2.307-17.143-2.307-17.143l-6.906-14.121-18.832-17.733-5.644 3.131c-.455.237-.95.77-1.303 1.102-.414.397-.99.967-1.337 1.452-.705 1.021-1.269 2.635-1.119 3.863.258.088.536.054.706-.153-.36.268-.387.909-.557 1.272-.21.435-.455.801-.679 1.262-.44.875-.813 1.635-1.221 2.51-.767 1.679-1.459 3.88-1.229 5.783.414-.044.522-.461.889-.586.163.651-.203 1.506-.284 2.184-.096.794-.313 1.516-.313 2.354 0 .858.143 1.533.326 2.354.108.516.176 1.554.61 1.886 0 0 1.262 6.743 3.141 12.391 1.886 5.658 6.594 17.262 8.792 26.997 2.198 9.738.943 20.718-2.198 23.859-3.147 3.141-37.352 4.396-47.711 5.658-27.631 3.755-64.604 13.327-75.343 18.201-30.453 13.816-51.802 37.356-51.802 37.356l63.891 83.66c.142.621-.271 1.875-.434 2.517-.204.784-.299 1.543-.353 2.354-.129 1.642-.57 3.402-.292 5.163.251-.081.542-.281.726-.434.468.919.027 1.984.034 2.961.007 1.055-.163 2.245 0 3.3.224 1.553 1.336-.566 1.838.662.176.396.156.946.204 1.37.061.57.217 1.055.325 1.57.177.838.123 2.418 1.275 2.636.448.082.78-.228 1.221-.282.747-.081.875.027 1.452-.434.706-.56 1.221-1.126 1.804-1.805.522-.586 1.201-1.506 1.934-1.767.326.414.414 1.038.617 1.5.176.37.78 1.109 1.255 1.109.482-.01.902-.858 1.411-.957.719-.136.991.641 1.73.468l2.042-.468c1.099-.471 4.864-5.804 6.587-8.158 1.73-2.354 5.176-8.483 6.126-8.951.936-.461 2.354-1.408 3.453-1.57 1.092-.153 31.078-14.273 42.379-21.974 11.302-7.686 26.993-30.127 27.78-30.599.787-.479 1.724-.315 2.822-1.099.813-.577 7.422-8.663 11.281-13.056 1.371-1.57 2.401-2.673 2.693-2.798 1.1-.472 2.829-1.103 4.077-1.571 1.262-.478 1.567-2.048 1.567-2.048.237-.831 1.316-1.815 1.934-2.49.793.702 1.96-1.842 2.272-2.375.569-.984 1.492-2.039 1.798-3.114 1.011.136 1.31-.397 1.812-1.316.413-.74.576-2.049 1.336-2.609.686.625 1.241-1.353 1.404-1.713.129-.271.502-1.167.705-1.336.414-.353.89 0 1.263-.624.244-.397.399-.828.638-1.245.224-.376.427-.957.631-1.381.373-.854.827-1.767 1.479-2.489 1.241.983 1.607-1.679 2.035-2.348.407-.61.481-.865.59-1.604.062-.478.38-1.516.631-1.875.292-.417.374-.163.787-.309.476-.173.414-.289.658-.631.435-.604.902-1.129 1.072-1.886.156-.651.318-1.272.468-1.886.17-.712.244-1.272.332-2.021.835-.099.896.288 1.275-.641.245-.577.55-1.12.794-1.696.359-.892.346-2.245 1.499-2.571-.02-.767.271-1.669.367-2.456.122-.828.393-1.696.597-2.554.102-.441.332-.811.481-1.245.17-.485.081-1.055.143-1.57.074-.695 2.198-4.077 2.198-8.165.01-1.15-.06-3.47-.24-6.37z" fill="url(#ian_symbols_c20a7b47599c36041de7e42b2ed32b60)"/>
 <linearGradient id="ian_symbols_736187da8edff0a48128e9803cf96a10" y2="59.883" gradientUnits="userSpaceOnUse" x2="347.91" y1="14.087" x1="310.03">
  <stop stop-color="#F8D9A0" offset="0"/>
  <stop stop-color="#E28C25" offset=".4909"/>
  <stop stop-color="#D7A361" offset="1"/>
 </linearGradient>
 <path stroke="#070A08" stroke-width=".01" d="m344.08 25.217c-.217-1.879-.217-6.903-3.141-9.837-2.931-2.934-9.003-9.63-14.653-12.343-5.645-2.717-8.996-3.565-13.182-2.717-4.186.837-6.282 1.886-8.344 3.439-2.063 1.56-2.748 2.418-2.748 2.418l-3.141 5.023-1.676 3.972 7.74 5.441 3.982 7.958 1.255 7.12c.414.244.055.58.251 1.001.143.281.604.471.801.661.21.197.353.451.624.686.468.434 1.085 1.011 1.621 1.255.38.159.699.152 1.052.403.271.21.394.76.617 1.011.481.533 1.133.902 1.73 1.266 1.295.767 2.306 1.893 1.675 3.544-.542 1.452-.99 2.571-2.15 3.718-1.2 1.184-1.736 2.059-.726 3.619.569.875.522 1.146.407 2.13-.095.848-.055 1.543.318 2.31.584 1.12 1.106 2.456 2.415 3.033 1.31.577 10.827 8.843 14.803 11.349 3.976 2.517 23.018 8.999 23.018 8.999s-12.33-53.573-12.54-55.459z" fill="url(#ian_symbols_736187da8edff0a48128e9803cf96a10)"/>
 <linearGradient id="ian_symbols_e2fc6eacef083554d9c2387954df04f7" y2="24.396" gradientUnits="userSpaceOnUse" x2="323.9" y1="24.396" x1="314.43">
  <stop stop-color="#6C130F" offset="0"/>
  <stop stop-color="#851619" offset=".9758"/>
 </linearGradient>
 <path stroke="#070A08" stroke-width=".01" d="m318.14 28.782c-.462 0-.706-.021-1.079-.19-.346-.163-.705-.373-1.018-.625-.502-.407-1.146-1.011-1.391-1.587-.285-.686-.265-1.707-.067-2.419.176-.685.258-1.299.698-1.903.421-.57.834-1.031 1.466-1.374.624-.343 1.315-.512 2.015-.594.8-.102 1.573-.146 2.313.082.65.197 1.221.746 1.635 1.279.516.661.712 1.157.896 1.967.162.777.468 1.689.156 2.51-.258.647-.679 1.262-1.201 1.696-.265.227-.543.488-.848.648-.34.19-.747.183-1.065.4l-2.5.110z" fill="url(#ian_symbols_e2fc6eacef083554d9c2387954df04f7)"/>
 <linearGradient id="ian_symbols_1ae6226083860a5471cae9c88f53d39d" y2="25.221" gradientUnits="userSpaceOnUse" x2="323.08" y1="25.221" x1="315.41">
  <stop stop-color="#EE2A24" offset="0"/>
  <stop stop-color="#D91F26" offset=".9758"/>
 </linearGradient>
 <path stroke="#070A08" stroke-width=".01" d="m323.05 24.909c.217 2.093-1.126 4.081-3.568 4.081-2.436 0-4.077-1.815-4.077-3.918 0-2.11 1.14-3.619 3.575-3.619 2.43-.001 3.86 1.461 4.07 3.456z" fill="url(#ian_symbols_1ae6226083860a5471cae9c88f53d39d)"/>
 <path d="m320.54 24.909c0 1.092-.441 2.086-1.52 2.086-1.065 0-1.934-.885-1.934-1.984 0-1.092.502-1.886 1.574-1.886 1.06 0 1.88.685 1.88 1.784z" fill="#0A0506"/>
 <path d="m317.84 22.833c-.882.319-1.052 1.859.163 1.733.99-.098 1.302-2.083.108-1.815.01 0-.20.055-.27.082z" fill="#F8D9A0"/>
 <linearGradient id="ian_symbols_b87c95b449043224111ce763e1fb3b4f" y2="130.25" gradientUnits="userSpaceOnUse" x2="415.8" y1="59.699" x1="349.69">
  <stop stop-color="#A36F33" offset="0"/>
  <stop stop-color="#A29680" offset=".6606"/>
 </linearGradient>
 <path stroke="#070A08" stroke-width=".01" d="m411.68 118.98c-4.179-3.979-27.203-27.411-35.161-38.512-7.95-11.079-19.456-27.621-21.973-32.221-2.51-4.603-4.179-9.423-5.651-12.354-1.472-2.924-2.3-5.234-2.931-6.065-.624-.837-1.045-4.186-1.045-4.186l-1.255-2.303c-.495-.18-.841-.577-1.309-.793-.489-.234-1.1-.125-1.636-.245-.793-.169-1.526-.315-2.333-.054-.651.2-1.031.553-1.628.879-.632.349-1.486.251-2.056.675-.435.326-.727.892-1.303 1.211-.699.394-1.588.295-2.035 1.035-.4.651-.4 1.563-.516 2.266-.108.658-.346 1.428-.732 1.984-.489.685-.753.732-.937 1.57-.325 1.526-.4 3.043-.576 4.667-.149 1.289-1.194 2.364-1.683 3.544-.34.821.122 1.533-.163 2.354-.196.607-.557 1.112-.882 1.618-.732 1.126-1.554 2.418-1.934 3.735-.102.027-.21.044-.332.081-.231.848-.448 1.31-.462 2.256 0 0 9.01 8.375 15.291 13.815 6.269 5.451 26.573 25.535 34.938 37.881 4.24 6.241 7.185 13.181 9.782 19.443.034-.305.068-.594.068-.821 0-.289-.17-.892-.218-1.255-.033-.333-.122-.712-.217-1.045-.196-.739-.23-1.526-.414-2.31-.318-1.472-.521-3.049-.99-4.44-.434-1.343-1.363-2.5-1.784-3.755-.529-1.523-.889-2.904-1.824-4.304-.4-.594-1.1-1.055-1.526-1.669-.462-.658-.407-1.408-.821-2.103-.773-1.272-1.54-2.795-2.415-4.023-.435-.614-1.011-1.19-1.466-1.713-.522-.634-.753-1.299-1.146-2.005-.406-.732-1.18-1.218-1.791-1.777-.475-.441-.705-.912-1.14-1.363-1.064-1.045-2.055-2.12-3.053-3.229-1.913-2.14-3.84-4.349-6.064-6.282-2.503-2.202-4.39-5.105-6.702-7.497-2.049-2.123-3.671-4.586-5.536-6.852-2.13-2.588-4.287-5.006-6.418-7.571-2.008-2.415-4.05-4.844-5.82-7.381-.93-1.343-1.689-2.859-2.408-4.294-.597-1.208-1.411-2.724-1.588-3.996.849-.021 1.812 1.587 2.327 2.218.72.885 1.459 1.689 2.191 2.619 1.275 1.642 2.68 3.284 3.874 4.962 1.587 2.235 3.724 4.169 5.447 6.435 1.893 2.497 3.88 4.8 5.956 7.218 1.181 1.387 2.205 2.734 3.555 3.979 1.126 1.048 2.293 2.029 3.412 3.104 1.045 1.011 2.145 2.065 3.087 3.168.835 1 1.526 2.31 2.341 3.311l1.886 1.876c.177-.044.428-.007.59.047.055.522.991 1 1.351 1.38.42.431.834.801 1.153 1.289.691 1.103 1.343 2.113 2.082 3.195 1.662 2.408 3.101 4.898 4.729 7.272 1.357 2.004 2.774 3.996 4.274 5.919 1.465 1.869 3.066 3.863 4.022 6.01 1.282 2.815 2.748 5.566 3.982 8.365.638 1.462 1.092 2.961 1.31 4.565.189 1.462.447 3.151.942 4.495.971 2.642 2.042 5.217 3.243 7.849.597 1.299 1.499 2.564 1.994 3.863.271.702.421 1.788.787 2.652.251.2.502.434.739.648.631.614 1.337 1.292 2.028 1.94.604.553 1.777 1.129 1.975 2.004.956.282 1.716 1.642 2.517 2.3.868.706 2.015 1.19 3.046 1.554.937.315 2.415 1.228 3.392 1.218 1.242-.01 1.622-1.218 2.564-1.842.522-.343 1.146-.458 1.784-.522.557-.044 1.248.163 1.934.054.957-.146 1.947-1.31 2.503-2.093.916-1.262 1.643-3.25 2.924-4.44 0-.2.021-.38.021-.586-.18-6.95-3.97-14.66-8.15-18.63z" fill="url(#ian_symbols_b87c95b449043224111ce763e1fb3b4f)"/>
 <linearGradient id="ian_symbols_0add4a8db6533fa489562e3a83606c49" y2="89.555" gradientUnits="userSpaceOnUse" x2="394.42" y1="89.555" x1="329.89">
  <stop stop-color="#7E5F40" offset="0"/>
  <stop stop-color="#64483A" offset=".7818"/>
 </linearGradient>
 <path stroke="#070A08" stroke-width=".01" d="m393.63 134.72c-.495-1.299-1.397-2.564-1.994-3.863-1.201-2.632-2.272-5.207-3.243-7.849-.495-1.343-.753-3.033-.942-4.495-.218-1.604-.672-3.104-1.31-4.565-1.234-2.798-2.7-5.549-3.982-8.365-.956-2.147-2.558-4.142-4.022-6.01-1.5-1.923-2.917-3.915-4.274-5.919-1.628-2.375-3.066-4.864-4.729-7.272-.739-1.082-1.391-2.093-2.082-3.195-.319-.488-.733-.858-1.153-1.289-.359-.38-1.296-.858-1.351-1.38-.162-.054-.413-.092-.59-.047l-1.886-1.876c-.814-1-1.506-2.31-2.341-3.311-.942-1.103-2.042-2.157-3.087-3.168-1.119-1.075-2.286-2.056-3.412-3.104-1.35-1.245-2.374-2.591-3.555-3.979-2.076-2.418-4.063-4.722-5.956-7.218-1.724-2.266-3.86-4.199-5.447-6.435-1.194-1.679-2.599-3.321-3.874-4.962-.732-.929-1.472-1.733-2.191-2.619-.516-.631-1.479-2.239-2.327-2.218.177 1.272.991 2.788 1.588 3.996.719 1.435 1.479 2.951 2.408 4.294 1.771 2.537 3.813 4.966 5.82 7.381 2.131 2.564 4.288 4.983 6.418 7.571 1.865 2.266 3.487 4.729 5.536 6.852 2.313 2.392 4.199 5.295 6.702 7.497 2.225 1.933 4.151 4.142 6.064 6.282.998 1.109 1.988 2.185 3.053 3.229.435.451.665.922 1.14 1.363.611.56 1.385 1.045 1.791 1.777.394.706.624 1.371 1.146 2.005.455.522 1.031 1.099 1.466 1.713.875 1.228 1.642 2.751 2.415 4.023.414.695.359 1.445.821 2.103.427.614 1.126 1.075 1.526 1.669.936 1.4 1.295 2.781 1.824 4.304.421 1.255 1.351 2.412 1.784 3.755.469 1.391.672 2.968.99 4.44.184.784.218 1.571.414 2.31.095.333.184.712.217 1.045.048.363.218.966.218 1.255 0 .227-.034.516-.068.821 2.518 6.109 4.688 11.57 7.381 15.081.299.387.611.794.937 1.191.454-.244.937-.489 1.316-.604.597-.183 1.14.071 1.628.441-.39-.89-.54-1.97-.82-2.67z" fill="url(#ian_symbols_0add4a8db6533fa489562e3a83606c49)"/>
 <path stroke="#070A08" stroke-width=".01" d="m414.4 144.72c-.686.108-1.377-.099-1.934-.054-.638.064-1.262.18-1.784.522-.942.624-1.322 1.832-2.564 1.842-.977.01-2.455-.902-3.392-1.218-1.031-.363-2.178-.848-3.046-1.554-.801-.658-1.561-2.018-2.517-2.3-.197-.875-1.371-1.452-1.975-2.004-.691-.648-1.397-1.327-2.028-1.94-.651-.61-1.451-1.37-2.367-1.089-.38.115-.862.36-1.316.604 5.719 7.001 16.099 15.945 21.044 11.794 1.838-1.554 7.218-3.864 7.306-11.136-1.281 1.191-2.008 3.178-2.924 4.44-.56.79-1.55 1.96-2.51 2.1z" fill="#070A08"/>
 <linearGradient id="ian_symbols_d3aafc7a86341ff42962011dfc237eea" y2="21.446" gradientUnits="userSpaceOnUse" x2="312.26" y1="21.446" x1="289.46">
  <stop stop-color="#281A17" offset="0"/>
  <stop stop-color="#886939" offset=".9758"/>
 </linearGradient>
 <path stroke="#070A08" stroke-width=".01" d="m294.91 12.25c-.651.163-.665 2.32-.794 2.924-.237 1.126-.488 1.805-1.356 2.669-.699.686-1.384 1.218-1.995 1.94-.454.553-1.492 1.903-1.269 2.69.319.01.651.037.978.054.359.631.007 1.598-.163 2.283-.217.875-.522 1.452-.4 2.479 1.208-.512 1.52.156 1.805 1.113.325 1.099.38 1.36 1.248 2.103.624.522.868 1.197 1.37 1.777.469.549 1.303 1.18 1.445 1.893.115.027.23.054.339.092.319 1.415 2.477 1.978 3.236 3.06 1.024-.516.787-1.995 1.459-2.843.271-.342.882-.661 1.058-1.048.387-.858-.258-.777-.861-1.146-.956-.594-1.886-1.604-2.599-2.425-.325-.363-.739-.716-.956-1.13-.19-.38-.529-1.462-.468-1.849.155-1.038 1.58-1.635 2.367-1.825 1.262-.315 2.449.289 3.508.777.44.207.82.597 1.309.794.651.264 1.133.146 1.818.264 1.499.251 1.554 1.632 1.221 2.887-.42.088-1.56.885-1.695 1.251-.19.489.42 1.625.691 2.13.699 1.364 1.323 3.032 2.313 4.189.516.621 2.564 2.263 3.283 1.642 1.14-1-.143-3.385-.413-4.521-.143-.651-.455-1.462-.598-2.13-.162-.848-.007-1.696-.189-2.517-.34-1.597-1.072-3.049-1.459-4.609-.407-1.608-.671-3.087-1.418-4.613-.617-1.225-1.356-2.436-2.15-3.544-.38-.533-.827-.977-1.418-1.31-.854-.495-1.269-.19-2.137-.152-1.078.054-1.099-.472-1.458-1.265-.435-.892-.794-.522-1.629-.234-.793-.621.679-2.093 1.052-2.635.591-.848.808-1.984 1.255-2.941.753-1.625 1.703-3.355 3.528-4.762-1.669.909-2.802 2.316-4.152 3.717-.794.821-1.303 1.74-1.899 2.734-.712 1.208-1.078 1.388-2.558 1.408l-1.23.629z" fill="url(#ian_symbols_d3aafc7a86341ff42962011dfc237eea)"/>
 <linearGradient id="ian_symbols_d467816a4c27c394552790706535da50" y2="283.31" gradientUnits="userSpaceOnUse" x2="105.02" y1="325.86" x1="82.547">
  <stop stop-color="#E19231" offset=".0606"/>
  <stop stop-color="#FDCDA4" offset=".9758"/>
 </linearGradient>
 <path stroke="#070A08" stroke-width=".01" d="m90.542 285.78c-.014 1.075-.488 2.103-.631 3.141-.176 1.299.014 2.49-.326 3.762-.563 2.157-.305 4.667-.862 6.903-1.051 4.25-2.842 8.212-3.819 12.581-.21.937-.61 2.076-.651 3.111-.041 1.265.645 2.177.631 3.466-.007 2.327-.57 4.467-.875 6.652-.217 1.587-1.872 4.267-1.092 5.665.285.499.78.678 1.038 1.184.292.577.238.902.312 1.571.102 1.251-.353 2.608.536 3.653 1.269-.902 1.336-2.958 1.967-4.287.672-1.432 1.371-2.85 2.13-4.061.298 1.184-.434 2.103-.014 3.206.23.631 1.14 1.886 1.886 1.75 1.404-.261 2.605-4.521 2.911-5.587 1.16-4.05 2.809-8.31 4.45-12.201.326-.767.814-1.533 1.126-2.327.346-.882.509-1.821.78-2.744.556-1.991 1.438-4.006 2.198-5.892.74-1.886 1.777-3.562 2.51-5.342.739-1.832 1.479-3.969 2.429-5.729l5.658-26.997h-6.913l-15.388 18.53z" fill="url(#ian_symbols_d467816a4c27c394552790706535da50)"/>
 <linearGradient id="ian_symbols_21d76b7949e33b54054bcf95b9a838fa" y2="274.73" gradientUnits="userSpaceOnUse" x2="173.1" y1="274.73" x1="82.367">
  <stop stop-color="#E71E25" offset=".0606"/>
  <stop stop-color="#CD2027" offset=".9758"/>
 </linearGradient>
 <path stroke="#070A08" stroke-width=".01" d="m91.159 259.09l-8.792 5.658c0 1.74.109 3.311.387 4.989 1.31-1.234 1.364 2.005 1.438 2.609.163 1.499-.088 3.114.122 4.592.38-.064.76-.146 1.14-.224-.068.746.292 1.425.373 2.164.115.939-.047 1.598.373 2.456.645-.02.807-.516 1.445-.532 1.377 2.778.285 6.271 1.71 9.022 1.065-.587 1.079-1.652 2.13-.587.522.533.753 2.293 1.479 2.599 1.913.821 2.218-4.457 4.742-4.23.651-1.357.238-6.452 2.185-6.814.394 1.129 1.655 3.206 2.978 2.564 1.493-.743 1.554-3.206 2.164-4.434 1.554.109 2.497-2.272 2.782-3.49.292-1.255 1.058-2.436 1.228-3.663.834.729.217 3.066.027 3.968-.298 1.408-.692 2.897-.875 4.396-.387 3.077-.353 6.143-1.011 9.104-.278 1.266-.631 2.5-.957 3.755-.36 1.388-.285 2.951-.611 4.413-.57 2.571-2.286 5.539-1.832 8.354.97-1.048 3.202-7.211 4.288-7.065-.021.913.265 2.13.414 3.07 1.133-.309 1.445-2.239 1.818-3.124.542-1.245 1.167-2.408 1.587-3.762.814-2.591 1.859-5.136 3.134-7.554.461-.858 1.092-2.561 1.797-3.202 1.458-1.32 1.486.811 1.35 1.974-.305 2.52-1.343 5.037-.882 7.744 1.146-1.625 2.272-3.267 3.467-4.847 1.18-1.57 2.055-3.256 3.446-4.735 1.105.414.488 1.839 1.424 2.354 1.153-1.038 2.401-3.022 3.84-3.521.427.797.692 1.38 1.574 1.211.828-.163 1.777-1.689 2.252-2.283.977-1.218 2.401-3.26 3.935-3.728 1.282 1.859 2.476 1.184 3.935-.278 1.303-1.31 3.026-2.999 4.878-3.158.197-.021.916.278 1.316.241.773-.044.882-.403 1.561-.556 1.201-.281 1.56-.319 2.578-.939.821-.488 1.683-.804 2.449-1.401.902-.719 1.479-1.703 2.198-2.517.651-.712 1.371-1.57 2.205-2.12.929-.614 1.913-.631 2.741-1.327 1.628-1.37 3.046-3.385 4.402-5.027 2.707-3.3 5.244-6.333 7.293-9.962l.319-7.534-81.971 15.39z" fill="url(#ian_symbols_21d76b7949e33b54054bcf95b9a838fa)"/>
 <path stroke="#070A08" stroke-width=".01" d="m168.71 246.85s-1.574 5.647 2.822 8.789c4.396 3.141 25.114-13.815 25.114-13.815l-1.255-7.534-26.67 12.56z" fill="#CD835E"/>
 <linearGradient id="ian_symbols_51c989b35a601e74717bb344447f6c73" y2="112.81" gradientUnits="userSpaceOnUse" x2="250.03" y1="281.25" x1="84.403">
  <stop stop-color="#F2A58B" offset="0"/>
  <stop stop-color="#F2A58B" offset=".497"/>
  <stop stop-color="#FBDFC1" offset=".9758"/>
 </linearGradient>
 <path stroke="#070A08" stroke-width=".01" d="m7.662 262.23c.136.902-.549 1.886-.624 2.833-.088.977-.36 1.94-.339 2.842.068 1.988 2.822 2.582 4.369 2.537.285 1.299.251 2.392.36 3.725.163 1.995 1.126 1.085 2.198 2.259.686.74.557 2.073 1.024 3.002.455.913 1.146 1.564 2.103 1.961 2.334.957 4.891.739 7.001-.234.937-.444 1.818-.732 2.741-1.102 1.357-.522 1.771-.407 3.121.081 2.103.74 3.127 2.266 4.966 3.212 1.879.957 5.244.831 7.3.244 4.484-1.292 8.602-3.718 12.476-6.055.922-.553 1.648-1.109 2.591-.858.448.116.712.522 1.181.706.638.234 1.214.234 1.954.234 2.483.007 3.48-1.815 5.577-2.602 1.092-.414 2.381-.105 3.555-.54 1.038-.38 2.021-.929 3.053-1.319 1.859-.685 3.88-2.388 5.698-3.474 1.14-.675 2.212-1.353 3.392-1.875 1.085-.479 2.096-.767 3.141-1.245 1.75-.804 4.077-2.49 6.031-2.761 1.242-.18 2.551.19 3.779-.075 1.309-.261 2.34-1.072 3.473-1.73.834-.479 1.784-1.445 2.734-1.733 1.031-.309 2.083.261 3.202.414 1.547.19 3.413-.485 4.796-.882 1.363-.38 2.72-.586 4.063-.929 3.019-.77 5.848-2.401 8.738-3.718.088 1.604 2.795 2.263 4.07 1.991.794-.159 1.777-.61 2.517-.936.705-.315 1.302-1.238 1.947-1.445.977-.299 1.269.37 2.13.586.868.217 1.94-.136 2.835-.037 1.513.173 3.053 1.265 4.694 1.221 1.547-.064 2.815-1.564 4.403-1.896.692-.146 1.452-.326 1.947-.326 1.004 0 1.417.363 2.205.631.916.315 1.092.064 2.117.064.957-.01 1.798.468 2.829.333 3.324-.421 6.316-1.371 9.403-2.534 1.567-.604 3.351-.848 4.959-1.635 1.37-.665 2.917-1.299 4.403-1.883 1.37-.536 3.086-.135 4.783-.553 1.411-.353 2.903-.722 4.321-1.316 1.52-.641 2.707-1.679 4.138-2.521 2.388-1.424 5.495-2.903 7.245-5.149.611 2.229 2.232 3.626 4.308 4.674 2.51 1.251 4.674.875 7.292.213 4.063-1.007 9.267-3.175 12.652-5.854 1.642-1.309 3.358-2.68 4.851-4.24.747-.777 1.486-1.733 2.28-2.385 1.309-1.065 2.238-.115 3.771-.37 1.703-.261 3.88-2.13 5.264-3.229 1.791-1.401 4.369-3.708 5.475-5.848 1.52.424 1.71.56 3.379.044 1.303-.404 2.015-.909 3.134-1.713 1.988-1.428 4.321-3.097 5.271-5.326 1.621-3.806 2.537-8.185 3.514-12.19.244-1.001.258-1.777 1.174-2.272.957-.496 2.171-.363 3.223-.865 2.178-1.048 4.701-1.733 6.384-3.673 1.363-1.598 2.795-3.233 4.361-4.729 1.5-1.408 2.891-3.385 4.329-5.081 1.702-2.032 2.795-4.07 4.09-6.279 1.337-2.266 2.789-5.261 3.439-7.852.651-2.534 2.157-5.431 1.899-8.165-.264-2.625.231-5.695-.942-8.168 0 0-2.829-14.121-8.785-18.208-5.977-4.081-15.705-8.782-28.893-10.668-13.175-1.886-43.947-2.822-56.816-.631-12.876 2.202-42.386 16.333-56.198 24.49-13.805 8.158-21.342 14.121-28.567 20.402-7.218 6.279-32.651 26.997-39.231 32.648-6.594 5.658-15.074 10.043-26.37 21.98-11.266 11.97-28.857 35.83-28.857 35.83z" fill="url(#ian_symbols_51c989b35a601e74717bb344447f6c73)"/>
 <linearGradient id="ian_symbols_0738860f37ea62443988f6550cb17e38" y2="201.65" gradientUnits="userSpaceOnUse" x2="222.78" y1="142.51" x1="196.45">
  <stop stop-color="#F37161" offset="0"/>
  <stop stop-color="#EE2725" offset=".4848"/>
  <stop stop-color="#EE312D" offset=".9758"/>
 </linearGradient>
 <path d="m138.26 176.85c-.74.349-1.045 2.055-1.262 2.822-.407 1.462-1.085 2.744-.896 4.342 1.275.441 2.612-1.343 3.466-2.066.733-.607 3.06-2.761 3.982-2.554.176 1.435-.095 2.924.041 4.358.136 1.489.604 2.608 1.004 4.023 1.31-.01 1.377.597 2.436-.566.902-.984 1.404-2.331 2.13-3.45 1.96-3.083 2.293 1.825 2.272 3.45-.021 1.065-.19 2.805 1.343 1.967.875-.488 1.208-2.076 1.56-2.917.57-1.336 1.472-5.213 2.999-5.61 1.303 1.089-.719 4.952.937 5.566.373-.435.807-.74 1.336-.865.841.984.4 2.283.305 3.426-.041.499-.143 1.347.041 1.815.299.732.882.577.902 1.635.014 1.36-1.167 2.235-1.269 3.446-.095 1.289.597 2.211 1.662 1.354.522-.434 1.174-2.473 2.11-2.31 1.377.224.726 2.239 1.642.027.862-2.103 1.411-4.8 2.836-6.489 1.234 1.445-.224 2.599.292 3.935.936.064 1.771-1.554 2.381-2.229.922-1.038 1.913-2.103 2.978-2.995 3.412-2.853 1.73 3.212 2.49 4.267.475.037.99.071 1.465.098.102.804 0 1.625.095 2.418 1.709.472 2.463-5.424 2.85-6.468.407-1.12 2.252-5.478 3.636-5.37.109.706 0 1.425.129 2.12.292-.326.699-.54 1.14-.55.224 1.74-.672 3.066-1.214 4.664-.496 1.425-.686 3.232-.902 4.685 1.228-.136 2.239-4.99 3.67-4.332.753.359.149 2.771.068 3.412-.143 1.089.129 1.876-.014 3.029.78-1.262.991-2.652 1.676-3.897.448-.838 2.076-2.582 2.992-2.87.129.922-.244 3.555 1.255 3.385-.007-.696.299-1.408.435-2.086.115-.532.169-1.289.319-1.875.271-1.055 1.262-1.832 1.513-2.88.169-.712-.054-1.333.685-1.821.875-.577.516-.207 1.248.224.611.38 1.099 1.303 1.75 1.201.577-.081.502-.909 1.262-.838-.082.886.244 2.147.36 3.094.102.841.217 2.283 1.051 2.717.631-1.316.943-2.876 1.235-4.287.142-.712.054-1.757.305-2.442.251-.688 1.058-.977.854-1.842.998 1.604.767 3.175 1.194 5 .088.414.298.566.326 1.099.02.217-.238.939-.238 1.336-.007 1.021.217 1.577.862 2.381.997-.967.692-6.055 3.168-5.485 0 .821.536 1.343.746 2.11 1.12-.451 2.028-2.632 2.754-3.491.773-.939 1.425-2.815 2.449-3.341.136 1.886.38 3.663.38 5.624 0 .811.265 1.94.251 2.581 0 .929-.882 1.75-.522 2.707 2.619.875 2.313-4.576 2.456-5.919.184-1.581 1.092-4.701 2.856-5.227.631 1.238 1.208 1.76 1.241 3.341 0 .675-.169 1.561-.021 2.218.109.516.563.957.706 1.5 1.879.241 1.995-4.722 3.392-5.793.075.668.57.675.862 1.201.42.756.386 1.279.386 2.127.027 1.625.543 2.357 1.011 3.728 1.567.119 1.777-3.439 2.218-4.593.624-1.669 1.221-2.951 2.51-4.423 1.004.841 1.947-2.958 2.361-3.881.793-1.729.848-3.941 1.085-5.871.848.875.359 2.235.543 3.429.176 1.251.746 2.523 1.024 3.772.543 2.489 1.085 4.701.794 7.218-.068.594-.163 1.255-.225 1.903-.026.299-.353.289-.353.604 0 .163.271.688.271.706-.108 1-.719 2.5.299 3.446 1.893 1.777 1.54-4.549 3.473-4.42.509 1.974.631 1.676 2.26 1.289 1.458-.36 2.523.342 2.876 1.767.529 0 1.607-1.072 1.92-1.516.651-.929.461-1.784.543-2.842.136-1.812.325-3.121 1.58-4.593.062.858.204 1.771.36 2.68 1.315-.522 1.228-3.229 1.58-4.366.488-1.56.686-3.646 1.812-4.908.658 1.045.129 1.974-.007 3.033-.143 1.119.143 2.364.306 3.453.088.58.325.94.325 1.564 0 .566-.346 1.072-.325 1.57.033 1.218 1.207 1.577 1.329 2.778 2.063.729 1.75-3.836 2.843-4.62.522.136.82.621.936 1.174 1.615-.886 1.676-2.782 2.836-3.989.801.271 1.438.668 2.361.505.631-.108 1.967-.814 2.347-1.452 1.425 1.055 3.271-.488 4.077-1.618 1.635-2.245-1.824-1.387-1.024-3.789.414-1.272 2.232-1.76 3.155-2.724 1.119-1.174 1.594-2.809 2.422-4.179.82-1.363 2.448-2.14 3.154-3.49.834-1.563.509-3.358.705-4.956.184-1.516.108-3.626-1.018-4.647-.516-.461-1.472-.631-2.068-1.092-.651-.495-.584-1.048-1.574-1.228-.143-1.496-3.501-5.739-4.192-2.517-1.004.315-1.832-.892-2.755-.902-1.119-.01-1.479.892-2.441 1.238-.299-.662-1.438-2.076-1.981-2.521-.373.315-.502.75-.672 1.255-.604-.281-1.105 0-1.289.651-.108-.108-.42-.21-.542-.336-.435.282-.679.723-.95 1.184-.102-.173-.278-.309-.366-.472-.38.109-.686.397-.889.777-.034-1.696-1.968.099-2.51.424-1.377.841-1.839.651-3.393.597.055-1.282-.325-2.727-1.695-2.249-.665.234-1.153 1.055-1.737 1.445-.475.315-1.133.468-1.56.804-.4-.553-.909-.831-1.079-1.472-.909-.217-1.676.099-2.483.488-1.092.54-.99.343-2.19.38-1.045.024-1.486 1.137-2.267 1.533-.685.333-1.424-.217-1.865.641-1.303-.488-1.554-2.357-3.398-1.862-.638.183-1.072 1.004-1.621 1.221-.909.353-1.574-.217-2.368-.342-1.96-.326-1.547 1.469-2.347 2.893-.76 1.357-1.886 2.51-2.999 3.45-.143-.973.183-1.598.265-2.493.095-1.062-.461-1.56-.712-2.469-.719.251-1.587 2.523-1.879 3.354-.428.217-.468.234-.814.587-.163-1.56-1.208-2.931-2.896-1.92-.583-.848-.997-1.994-1.31-2.961-1.255-.2-1.784 3.745-3.398 3.429-.74-.136-.74-1.238-1.561-1.526-1.194-.424-1.391.397-1.967 1.119-.387.479-1.004 1.289-1.553 1.581-.794.424-2.219.251-3.012.746-.624.39-.984 1.173-1.628 1.526-.739.414-1.533.597-2.286 1.201-1.051-.359-.997-.875-1.485-1.733-.726 1.679-1.757 2.751-3.46 3.022-.651.102-.516.2-1.249.102-.631-.091-.814-.444-1.499-.336-.665.109-1.587.848-2.272 1.109-1.011.38-1.825.2-2.822.38-1.628.289-1.275.451-2.584-.549-.712-.55-1.52-1.021-2.375-.95-.169.02-.699.509-.997.58-.441.098-1.085-.01-1.526-.071-.163-1.788-3.175-.695-4.043-.299-.957-.776-1.913-1.625-3.236-1.536-1.561.108-1.296 1.353-2.266 2.13-1.173.923-2.313.108-3.446-.169-.631-.146-1.33-.146-1.899-.289-.631-.163-.882-.57-1.73-.336-.957.261-1.933 1.146-2.89 1.517-1.33.495-2.185.054-3.46-.315-1.825-.533-5.122-.94-6.275 1.234l-15.72 14.78z" fill="url(#ian_symbols_0738860f37ea62443988f6550cb17e38)"/>
 <path stroke="#070A08" stroke-width=".01" d="m233.33 447.25c.163.292 2.185-1.964 2.544-3.138.366-1.174.563-3.962.435-4.711-.143-.757-1.642-1.103-2.13.939-.204.892.76 1.967.217 3.653-.48 1.53-1.22 2.97-1.06 3.26z" fill="#381610"/>
</svg>
